<svg width="24" height="30" viewBox="0 0 24 30" fill="none" xmlns="http://www.w3.org/2000/svg">
<path d="M11.9999 4.27954C9.14705 4.27954 6.82611 7.18072 6.82611 10.7467C6.82611 14.3126 9.14705 17.2139 11.9999 17.2139C14.8528 17.2139 17.1737 14.3127 17.1737 10.7467C17.1737 7.18056 14.8528 4.27954 11.9999 4.27954ZM11.9999 14.8118C10.2067 14.8118 8.74784 12.9882 8.74784 10.7467C8.74784 8.50511 10.2067 6.68171 11.9999 6.68171C13.7932 6.68171 15.252 8.50527 15.252 10.7467C15.252 12.988 13.7932 14.8118 11.9999 14.8118Z" fill="#1D1D1B"/>
<path d="M11.9999 0C7.25925 0 3.40259 4.82099 3.40259 10.7466C3.40259 12.6178 3.70942 14.1917 4.36794 15.6986L9.51613 28.1109C9.99913 29.2762 10.9508 29.9998 12 29.9998C13.049 29.9998 14.0006 29.2763 14.4834 28.1119L19.637 15.6868C20.2654 14.1717 20.5975 12.4632 20.5975 10.7466C20.5974 4.82099 16.7406 0 11.9999 0ZM17.9308 14.5813L12.7771 27.0064C12.6259 27.3711 12.328 27.5977 11.9999 27.5977C11.6718 27.5977 11.3739 27.3711 11.2226 27.0063L6.06906 14.5813L6.05868 14.557C5.5507 13.3986 5.32432 12.2235 5.32432 10.7468C5.32432 6.14554 8.31902 2.40217 11.9999 2.40217C15.6808 2.40217 18.6755 6.14554 18.6755 10.7466C18.6756 12.0992 18.425 13.3895 17.9308 14.5813Z" fill="#1D1D1B"/>
</svg>
