<svg width="24" height="24" viewBox="0 0 24 24" fill="none" xmlns="http://www.w3.org/2000/svg">
<path d="M17.5034 0H6.49657C2.9143 0 0 2.9143 0 6.49657V17.5036C0 21.0857 2.9143 24 6.49657 24H17.5036C21.0857 24 24 21.0857 24 17.5036V6.49657C24 2.9143 21.0857 0 17.5034 0V0ZM22.593 17.5036C22.593 20.3098 20.3098 22.593 17.5034 22.593H6.49657C3.69012 22.593 1.40698 20.3098 1.40698 17.5036V6.49657C1.40698 3.69012 3.69012 1.40698 6.49657 1.40698H17.5036C20.3098 1.40698 22.593 3.69012 22.593 6.49657V17.5036Z" fill="black"/>
<path d="M12 5.43762C8.38145 5.43762 5.43767 8.3814 5.43767 11.9999C5.43767 15.6184 8.38145 18.5622 12 18.5622C15.6185 18.5622 18.5623 15.6184 18.5623 11.9999C18.5623 8.3814 15.6185 5.43762 12 5.43762ZM12 17.1553C9.15745 17.1553 6.84465 14.8426 6.84465 11.9999C6.84465 9.1574 9.15745 6.8446 12 6.8446C14.8427 6.8446 17.1553 9.1574 17.1553 11.9999C17.1553 14.8426 14.8427 17.1553 12 17.1553Z" fill="black"/>
<path d="M18.7192 3.10706C17.6499 3.10706 16.7801 3.97699 16.7801 5.04614C16.7801 6.11547 17.6499 6.98541 18.7192 6.98541C19.7885 6.98541 20.6585 6.11547 20.6585 5.04614C20.6585 3.97681 19.7885 3.10706 18.7192 3.10706ZM18.7192 5.57824C18.4259 5.57824 18.1871 5.33947 18.1871 5.04614C18.1871 4.75262 18.4259 4.51404 18.7192 4.51404C19.0127 4.51404 19.2515 4.75262 19.2515 5.04614C19.2515 5.33947 19.0127 5.57824 18.7192 5.57824Z" fill="black"/>
</svg>
