<svg width="24" height="32" viewBox="0 0 24 32" fill="none" xmlns="http://www.w3.org/2000/svg">
<path d="M19.7728 9.34555L12.0009 18.477L4.22722 9.34541C3.91769 8.98182 3.44587 9.02178 3.17328 9.43422C2.90078 9.8468 2.93045 10.4759 3.23998 10.8395L11.5073 20.5511C11.6484 20.7167 11.8247 20.7996 12.001 20.7996C12.1772 20.7996 12.3536 20.7167 12.4947 20.5509L20.7603 10.8393C21.0697 10.4759 21.0994 9.84666 20.8268 9.43409C20.554 9.02191 20.0823 8.98209 19.7728 9.34555Z" fill="black"/>
<path d="M21.7599 5.1145H2.2401C1.00496 5.1145 0 6.45431 0 8.1013V23.8984C0 25.5454 1.00496 26.8852 2.2401 26.8852H21.7599C22.995 26.8852 24 25.5454 24 23.8984V8.1013C24 6.45445 22.995 5.1145 21.7599 5.1145ZM22.5066 23.8984C22.5066 24.4473 22.1717 24.894 21.7599 24.894H2.2401C1.82832 24.894 1.4934 24.4473 1.4934 23.8984V8.1013C1.4934 7.55239 1.82832 7.1057 2.2401 7.1057H21.7599C22.1717 7.1057 22.5066 7.55239 22.5066 8.1013V23.8984Z" fill="black"/>
</svg>
