<svg width="24" height="28" viewBox="0 0 24 28" fill="none" xmlns="http://www.w3.org/2000/svg">
<g clip-path="url(#clip0)">
<path d="M20.5214 3.66795C18.4938 1.30248 15.798 -0.000132302 12.9307 1.00786e-08C12.4609 1.00786e-08 12.0802 0.444304 12.0802 0.99234C12.0802 1.54038 12.461 1.98468 12.9307 1.98468C15.3436 1.98455 17.6122 3.08075 19.3184 5.07139C21.0248 7.06202 21.9644 9.70879 21.9643 12.524C21.9643 13.072 22.345 13.5163 22.8149 13.5163C23.2846 13.5163 23.6655 13.072 23.6655 12.5241C23.6656 9.17862 22.5491 6.03343 20.5214 3.66795Z" fill="black"/>
<path d="M17.0225 12.5241C17.0225 13.0721 17.4033 13.5164 17.8731 13.5163C18.3429 13.5163 18.7236 13.072 18.7236 12.524C18.7234 8.79806 16.1247 5.7664 12.9308 5.76587C12.9307 5.76587 12.9308 5.76587 12.9307 5.76587C12.461 5.76587 12.0803 6.21004 12.0802 6.75808C12.0802 7.30611 12.4609 7.75042 12.9306 7.75055C15.1867 7.75095 17.0222 9.89228 17.0225 12.5241Z" fill="black"/>
<path d="M15.1403 17.5837C13.8438 17.5054 13.1833 18.6303 12.8665 19.1707C12.6013 19.6231 12.7006 20.2406 13.0884 20.55C13.4761 20.8595 14.0054 20.7436 14.2707 20.2912C14.6449 19.6528 14.8145 19.5524 15.0445 19.5651C15.7806 19.6661 18.6799 22.1448 18.9703 22.9199C19.0431 23.1481 19.0404 23.3719 18.9622 23.644C18.6578 24.698 18.1539 25.4387 17.5048 25.7859C16.8881 26.1158 16.132 26.0858 15.3187 25.6998C12.2819 24.2557 9.62878 22.2405 7.43316 19.7099C7.43225 19.7088 7.43134 19.7079 7.43055 19.7068C5.266 17.1478 3.54182 14.0564 2.3061 10.5189C1.97506 9.56935 1.94943 8.68709 2.23216 7.96771C2.52975 7.21036 3.16462 6.62249 4.06725 6.26776C4.30133 6.1762 4.49277 6.17329 4.68658 6.25744C5.35332 6.59735 7.47784 9.97978 7.56358 10.829C7.57583 11.1073 7.48907 11.305 6.94232 11.7408C6.55445 12.0499 6.45476 12.6674 6.7198 13.1199C6.98473 13.5724 7.5139 13.6886 7.90188 13.3795C8.36528 13.0104 9.32926 12.2419 9.26235 10.7242C9.18863 9.1388 6.54527 4.94041 5.28222 4.39859C4.72049 4.15435 4.12963 4.15011 3.52538 4.38669C2.16581 4.92083 1.18391 5.87321 0.68581 7.14076C0.202682 8.37047 0.217993 9.79719 0.730607 11.2674C2.05308 15.0531 3.90337 18.3656 6.22999 21.113C6.23566 21.1198 6.24144 21.1264 6.24734 21.1329C8.6006 23.8422 11.4365 25.9969 14.6771 27.538C15.3261 27.8459 15.9651 28 16.5763 28C17.1517 28 17.7027 27.8635 18.2137 27.5901C19.3003 27.0091 20.1165 25.8637 20.5747 24.2765C20.777 23.5729 20.7737 22.8838 20.566 22.2315C20.1 20.7539 16.5013 17.67 15.1403 17.5837Z" fill="black"/>
</g>
<defs>
<clipPath id="clip0">
<rect width="24" height="28" fill="white"/>
</clipPath>
</defs>
</svg>
