<svg width="24" height="24" viewBox="0 0 24 24" fill="none" xmlns="http://www.w3.org/2000/svg">
<g clip-path="url(#clip0)">
<path d="M9.13205 21.924C5.12643 21.924 1.96053 21.2241 0.445882 20.0043L0.416402 19.9805L0.389669 19.9538C0.0298664 19.5938 -0.0880536 19.1215 0.0664875 18.6583L0.0805866 18.6198C0.268087 18.1509 0.727499 17.8352 1.22536 17.8323C2.25002 17.8145 3.14651 17.6924 3.96005 17.4553C2.66238 16.8518 1.76095 15.8068 1.22463 14.2943C1.04427 13.8227 1.19991 13.2997 1.61556 12.9879C1.7181 12.9108 1.83401 12.8526 1.95669 12.8136C1.23562 11.9812 0.702963 11.034 0.404684 10.0322L0.395345 10.0011L0.388937 9.9692C0.287679 9.46255 0.514181 8.94162 0.929281 8.71731C1.10341 8.61734 1.29256 8.56552 1.48244 8.56112C1.27773 8.12021 1.12887 7.66757 1.04061 7.21219C0.795614 5.95022 0.997763 4.68515 1.6412 3.45211L1.79006 3.15439C1.90926 2.91617 2.13705 2.74881 2.39962 2.70614C2.66219 2.66366 2.93136 2.75045 3.11941 2.9385L3.39059 3.21005C5.53292 5.45602 7.45187 6.5217 10.7696 7.25082C10.9177 5.97732 11.4683 4.79355 12.3565 3.8619C13.4136 2.75338 14.8252 2.13138 16.3312 2.11013H16.3411C17.4399 2.11013 18.803 2.73745 19.6273 3.17984C20.3345 2.94839 21.1864 2.59005 22.0705 2.21121C22.4841 2.01712 22.9941 2.10592 23.3193 2.43112C23.638 2.74991 23.7265 3.19943 23.5573 3.63632C23.493 3.81521 23.4201 3.99081 23.339 4.16256C23.4601 4.21805 23.5708 4.2933 23.6644 4.38687C23.9473 4.66977 24.0652 5.11252 23.9647 5.51498L23.9539 5.55325C23.6152 6.64493 22.9644 7.53409 22.1038 8.09219C21.9601 15.7462 16.1963 21.924 9.13205 21.924ZM1.79555 19.2204C3.22286 20.0279 5.9429 20.5164 9.13205 20.5164C12.1982 20.5164 15.0916 19.2001 17.2792 16.8098C19.4847 14.4 20.6992 11.1999 20.6992 7.79886V7.76059C20.6992 7.4526 20.8688 7.17154 21.1416 7.02688C21.6951 6.73373 22.1434 6.2344 22.4349 5.59591C22.1342 5.64334 21.8286 5.52267 21.6413 5.27108C21.4236 4.97867 21.4212 4.58371 21.6352 4.28872C21.7508 4.12942 21.8555 3.96371 21.9489 3.79232C21.1855 4.11294 20.4606 4.40042 19.8313 4.5914C19.6026 4.66061 19.3477 4.63351 19.1388 4.51687C18.0183 3.89267 16.9748 3.5195 16.3457 3.51767C14.0241 3.55319 12.1364 5.54153 12.1364 7.9523C12.1364 8.2015 12.0259 8.43515 11.8334 8.59353C11.6408 8.75174 11.3903 8.81509 11.1457 8.76675C7.32022 8.01309 5.05337 6.88296 2.69607 4.51413C2.35824 5.32364 2.26595 6.139 2.42214 6.94412C2.58053 7.75967 3.00185 8.57687 3.64071 9.30728C3.88351 9.5845 3.91573 9.98111 3.72091 10.294C3.52682 10.6059 3.15786 10.7516 2.80318 10.6566C2.52596 10.5822 2.27108 10.4846 2.02938 10.3592C2.52175 11.4287 3.36861 12.4179 4.43319 13.1474C4.74172 13.3589 4.87063 13.7531 4.74685 14.1061C4.62289 14.4597 4.27664 14.6873 3.90237 14.6595C3.49459 14.6292 3.13332 14.5518 2.8008 14.4212C3.39773 15.6369 4.35153 16.3058 5.82095 16.5614C6.17086 16.6223 6.44333 16.8986 6.49899 17.2489C6.55484 17.5992 6.38144 17.9464 6.06778 18.1128C4.81533 18.7768 3.44643 19.1331 1.79555 19.2204Z" fill="black"/>
</g>
<defs>
<clipPath id="clip0">
<rect width="24" height="24" fill="white"/>
</clipPath>
</defs>
</svg>
