<svg width="24" height="24" viewBox="0 0 24 24" fill="none" xmlns="http://www.w3.org/2000/svg">
<g clip-path="url(#clip0)">
<path d="M15.6941 10.9214L10.3919 8.02027C10.0871 7.85346 9.72671 7.85968 9.42788 8.03675C9.12887 8.21399 8.95053 8.5271 8.95053 8.87464V14.6271C8.95053 14.973 9.12778 15.2855 9.42477 15.463C9.57986 15.5556 9.7518 15.6021 9.9241 15.6021C10.0819 15.6021 10.2401 15.5631 10.3857 15.4847L15.688 12.6336C16.0028 12.4642 16.1993 12.137 16.2007 11.7794C16.202 11.4218 16.0079 11.0931 15.6941 10.9214ZM10.357 13.9034V9.60413L14.3197 11.7725L10.357 13.9034Z" fill="black"/>
<path d="M23.8234 7.19659L23.8223 7.18561C23.802 6.99243 23.5996 5.27417 22.7643 4.40021C21.7988 3.37225 20.7042 3.24738 20.1778 3.1875C20.1342 3.18256 20.0943 3.17798 20.0586 3.17322L20.0166 3.16882C16.8438 2.93811 12.0521 2.90662 12.0042 2.90643L12 2.90625L11.9957 2.90643C11.9478 2.90662 7.1561 2.93811 3.9547 3.16882L3.9124 3.17322C3.87834 3.1778 3.84081 3.18201 3.79997 3.18677C3.27959 3.24683 2.19671 3.37189 1.22845 4.43701C0.43286 5.30164 0.20288 6.98309 0.17926 7.17206L0.176513 7.19659C0.169372 7.27698 0 9.19061 0 11.1118V12.9077C0 14.8288 0.169372 16.7424 0.176513 16.823L0.177795 16.8351C0.198119 17.0251 0.400267 18.7119 1.23175 19.5862C2.13958 20.5798 3.28746 20.7112 3.90489 20.7819C4.00249 20.7931 4.08653 20.8026 4.14384 20.8127L4.19932 20.8204C6.03129 20.9947 11.7751 21.0806 12.0186 21.084L12.026 21.0842L12.0333 21.084C12.0813 21.0839 16.8727 21.0524 20.0456 20.8217L20.0875 20.8173C20.1276 20.812 20.1726 20.8072 20.2221 20.8021C20.7395 20.7471 21.8166 20.6331 22.7715 19.5824C23.567 18.7176 23.7972 17.0361 23.8206 16.8474L23.8234 16.8228C23.8305 16.7422 24.0001 14.8288 24.0001 12.9077V11.1118C23.9999 9.19061 23.8305 7.27716 23.8234 7.19659ZM22.5935 12.9077C22.5935 14.6858 22.4382 16.517 22.4236 16.6851C22.3639 17.1482 22.1213 18.212 21.7336 18.6334C21.136 19.2909 20.522 19.3561 20.0738 19.4035C20.0196 19.4092 19.9694 19.4147 19.924 19.4203C16.8552 19.6423 12.2444 19.6763 12.032 19.6776C11.7938 19.6741 6.13401 19.5875 4.35789 19.4225C4.26689 19.4077 4.16856 19.3964 4.06493 19.3846C3.53923 19.3244 2.81963 19.242 2.26629 18.6334L2.25329 18.6194C1.87243 18.2227 1.63677 17.2278 1.5769 16.6906C1.56573 16.5635 1.40643 14.7107 1.40643 12.9077V11.1118C1.40643 9.33563 1.56133 7.50641 1.57635 7.33484C1.64758 6.78937 1.89477 5.78998 2.26629 5.38605C2.88225 4.70856 3.53172 4.63348 3.96129 4.58386C4.0023 4.5791 4.04057 4.57471 4.07591 4.57013C7.18942 4.34711 11.8333 4.31396 12 4.31268C12.1666 4.31378 16.8088 4.34711 19.8947 4.57013C19.9326 4.57489 19.974 4.57965 20.0185 4.58478C20.4603 4.63513 21.1281 4.7113 21.7409 5.36499L21.7466 5.37103C22.1275 5.76782 22.3631 6.78003 22.423 7.32806C22.4336 7.448 22.5935 9.30487 22.5935 11.1118V12.9077Z" fill="black"/>
</g>
<defs>
<clipPath id="clip0">
<rect width="24" height="24" fill="white"/>
</clipPath>
</defs>
</svg>
